<svg width="901.800048828125px" height="412.59998779296876px" xmlns="http://www.w3.org/2000/svg" viewBox="-200.9000244140625 -131.29999389648438 901.800048828125 412.59998779296876" style="background: rgba(0, 0, 0, 0) none repeat scroll 0% 0%;" preserveAspectRatio="xMidYMid"><defs><linearGradient id="editing-sticker-gradient" x1="0.2" y1="0.5" x2="0.8" y2="0.5"><stop offset="0" stop-color="#491f5f"></stop><stop offset="1" stop-color="#491f5f"></stop></linearGradient><filter id="editing-sticker" x="-100%" y="-100%" width="300%" height="300%"><feMorphology operator="erode" radius="1" in="SourceAlpha" result="alpha-erode"></feMorphology><feConvolveMatrix order="3,3" divisor="1" kernelMatrix="0 1 0 1 1 1 0 1 0" in="alpha-erode" result="alpha-round"></feConvolveMatrix><feMorphology operator="dilate" radius="3.5" in="alpha-round" result="dilate-shadow"></feMorphology><feGaussianBlur in="dilate-shadow" stdDeviation="1.5" result="shadow"></feGaussianBlur><feFlood flood-color="#fff" result="flood-sticker"></feFlood><feComposite operator="in" in="flood-sticker" in2="alpha-round" result="comp-sticker"></feComposite><feMorphology operator="dilate" radius="3" in="comp-sticker" result="morph-sticker"></feMorphology><feConvolveMatrix order="3,3" divisor="1" kernelMatrix="0 1 0 1 1 1 0 1 0" in="morph-sticker" result="sticker"></feConvolveMatrix><feMerge><feMergeNode in="shadow"></feMergeNode><feMergeNode in="sticker"></feMergeNode><feMergeNode in="SourceGraphic"></feMergeNode></feMerge></filter></defs><g filter="url(#editing-sticker)"><g transform="translate(-73.38001823425293, 139.31499481201172)"><path d="M69.73-47.12L100.13-16.72L100.13-16.72Q99.18-7.79 94.91-3.04L94.91-3.04L94.91-3.04Q90.63 1.71 82.46 1.71L82.46 1.71L82.46 1.71Q76.38 1.71 71.63-1.24L71.63-1.24L71.63-1.24Q66.88-4.18 61.37-11.21L61.37-11.21L42.56-34.77L42.56-0.19L42.56-0.19Q40.47 0.19 36.38 0.85L36.38 0.85L36.38 0.85Q32.30 1.52 28.12 1.52L28.12 1.52L28.12 1.52Q23.94 1.52 20.62 0.95L20.62 0.95L20.62 0.95Q17.29 0.38 15.01-1.33L15.01-1.33L15.01-1.33Q12.73-3.04 11.50-5.99L11.50-5.99L11.50-5.99Q10.26-8.93 10.26-13.68L10.26-13.68L10.26-123.69L10.26-123.69Q12.35-124.26 16.43-124.92L16.43-124.92L16.43-124.92Q20.52-125.59 24.70-125.59L24.70-125.59L24.70-125.59Q28.88-125.59 32.20-125.02L32.20-125.02L32.20-125.02Q35.53-124.45 37.81-122.74L37.81-122.74L37.81-122.74Q40.09-121.03 41.33-118.09L41.33-118.09L41.33-118.09Q42.56-115.14 42.56-110.39L42.56-110.39L42.56-60.23L75.24-93.67L75.24-93.67Q85.12-93.67 91.11-89.30L91.11-89.30L91.11-89.30Q97.09-84.93 97.09-78.28L97.09-78.28L97.09-78.28Q97.09-75.43 96.14-73.06L96.14-73.06L96.14-73.06Q95.19-70.68 93.20-68.21L93.20-68.21L93.20-68.21Q91.20-65.74 88.06-62.98L88.06-62.98L88.06-62.98Q84.93-60.23 80.75-56.62L80.75-56.62L69.73-47.12ZM155.23-20.52L155.23-20.52L155.23-20.52Q158.46-20.52 162.35-21.18L162.35-21.18L162.35-21.18Q166.25-21.85 168.15-22.99L168.15-22.99L168.15-38.19L154.47-37.05L154.47-37.05Q149.15-36.67 145.73-34.77L145.73-34.77L145.73-34.77Q142.31-32.87 142.31-29.07L142.31-29.07L142.31-29.07Q142.31-25.27 145.25-22.89L145.25-22.89L145.25-22.89Q148.20-20.52 155.23-20.52ZM153.71-95.19L153.71-95.19L153.71-95.19Q163.97-95.19 172.43-93.10L172.43-93.10L172.43-93.10Q180.88-91.01 186.87-86.73L186.87-86.73L186.87-86.73Q192.85-82.46 196.08-75.91L196.08-75.91L196.08-75.91Q199.31-69.35 199.31-60.42L199.31-60.42L199.31-17.86L199.31-17.86Q199.31-12.92 196.56-9.79L196.56-9.79L196.56-9.79Q193.80-6.65 190-4.37L190-4.37L190-4.37Q177.65 3.04 155.23 3.04L155.23 3.04L155.23 3.04Q145.16 3.04 137.09 1.14L137.09 1.14L137.09 1.14Q129.01-0.76 123.22-4.56L123.22-4.56L123.22-4.56Q117.42-8.36 114.28-14.25L114.28-14.25L114.28-14.25Q111.15-20.14 111.15-27.93L111.15-27.93L111.15-27.93Q111.15-41.04 118.94-48.07L118.94-48.07L118.94-48.07Q126.73-55.10 143.07-56.81L143.07-56.81L167.96-59.47L167.96-60.80L167.96-60.80Q167.96-66.31 163.12-68.69L163.12-68.69L163.12-68.69Q158.27-71.06 149.15-71.06L149.15-71.06L149.15-71.06Q141.93-71.06 135.09-69.54L135.09-69.54L135.09-69.54Q128.25-68.02 122.74-65.74L122.74-65.74L122.74-65.74Q120.27-67.45 118.56-70.97L118.56-70.97L118.56-70.97Q116.85-74.48 116.85-78.28L116.85-78.28L116.85-78.28Q116.85-83.22 119.22-86.17L119.22-86.17L119.22-86.17Q121.60-89.11 126.54-91.20L126.54-91.20L126.54-91.20Q132.05-93.29 139.56-94.24L139.56-94.24L139.56-94.24Q147.06-95.19 153.71-95.19ZM277.59-13.68L277.59-58.52L277.59-58.52Q277.59-64.41 274.26-67.17L274.26-67.17L274.26-67.17Q270.94-69.92 265.24-69.92L265.24-69.92L265.24-69.92Q261.44-69.92 257.74-68.97L257.74-68.97L257.74-68.97Q254.03-68.02 251.37-66.12L251.37-66.12L251.37-0.19L251.37-0.19Q249.47 0.38 245.38 0.95L245.38 0.95L245.38 0.95Q241.30 1.52 236.93 1.52L236.93 1.52L236.93 1.52Q232.75 1.52 229.43 0.95L229.43 0.95L229.43 0.95Q226.10 0.38 223.82-1.33L223.82-1.33L223.82-1.33Q221.54-3.04 220.31-5.99L220.31-5.99L220.31-5.99Q219.07-8.93 219.07-13.68L219.07-13.68L219.07-70.68L219.07-70.68Q219.07-75.81 221.25-79.04L221.25-79.04L221.25-79.04Q223.44-82.27 227.24-84.93L227.24-84.93L227.24-84.93Q233.70-89.49 243.49-92.34L243.49-92.34L243.49-92.34Q253.27-95.19 265.24-95.19L265.24-95.19L265.24-95.19Q286.71-95.19 298.30-85.78L298.30-85.78L298.30-85.78Q309.89-76.38 309.89-59.66L309.89-59.66L309.89-0.19L309.89-0.19Q307.99 0.38 303.90 0.95L303.90 0.95L303.90 0.95Q299.82 1.52 295.45 1.52L295.45 1.52L295.45 1.52Q291.27 1.52 287.94 0.95L287.94 0.95L287.94 0.95Q284.62 0.38 282.34-1.33L282.34-1.33L282.34-1.33Q280.06-3.04 278.82-5.99L278.82-5.99L278.82-5.99Q277.59-8.93 277.59-13.68L277.59-13.68ZM330.22-22.42L330.22-123.69L330.22-123.69Q332.12-124.26 336.30-124.92L336.30-124.92L336.30-124.92Q340.48-125.59 344.85-125.59L344.85-125.59L344.85-125.59Q349.03-125.59 352.35-125.02L352.35-125.02L352.35-125.02Q355.68-124.45 357.96-122.74L357.96-122.74L357.96-122.74Q360.24-121.03 361.38-118.09L361.38-118.09L361.38-118.09Q362.52-115.14 362.52-110.39L362.52-110.39L362.52-91.77L362.52-91.77Q367.27-93.67 371.54-94.43L371.54-94.43L371.54-94.43Q375.82-95.19 380.95-95.19L380.95-95.19L380.95-95.19Q390.07-95.19 398.24-91.96L398.24-91.96L398.24-91.96Q406.41-88.73 412.68-82.56L412.68-82.56L412.68-82.56Q418.95-76.38 422.56-67.26L422.56-67.26L422.56-67.26Q426.17-58.14 426.17-46.17L426.17-46.17L426.17-46.17Q426.17-33.82 422.46-24.61L422.46-24.61L422.46-24.61Q418.76-15.39 412.11-9.31L412.11-9.31L412.11-9.31Q405.46-3.23 395.87-0.10L395.87-0.10L395.87-0.10Q386.27 3.04 374.68 3.04L374.68 3.04L374.68 3.04Q362.14 3.04 353.40 0.10L353.40 0.10L353.40 0.10Q344.66-2.85 338.58-7.22L338.58-7.22L338.58-7.22Q330.22-13.11 330.22-22.42L330.22-22.42ZM374.68-22.42L374.68-22.42L374.68-22.42Q383.42-22.42 388.26-28.41L388.26-28.41L388.26-28.41Q393.11-34.39 393.11-46.17L393.11-46.17L393.11-46.17Q393.11-58.14 388.17-64.03L388.17-64.03L388.17-64.03Q383.23-69.92 374.87-69.92L374.87-69.92L374.87-69.92Q371.07-69.92 368.31-69.16L368.31-69.16L368.31-69.16Q365.56-68.40 362.33-66.88L362.33-66.88L362.33-25.46L362.33-25.46Q364.42-24.13 367.37-23.27L367.37-23.27L367.37-23.27Q370.31-22.42 374.68-22.42ZM481.84-20.52L481.84-20.52L481.84-20.52Q485.07-20.52 488.96-21.18L488.96-21.18L488.96-21.18Q492.86-21.85 494.76-22.99L494.76-22.99L494.76-38.19L481.08-37.05L481.08-37.05Q475.76-36.67 472.34-34.77L472.34-34.77L472.34-34.77Q468.92-32.87 468.92-29.07L468.92-29.07L468.92-29.07Q468.92-25.27 471.86-22.89L471.86-22.89L471.86-22.89Q474.81-20.52 481.84-20.52ZM480.32-95.19L480.32-95.19L480.32-95.19Q490.58-95.19 499.03-93.10L499.03-93.10L499.03-93.10Q507.49-91.01 513.47-86.73L513.47-86.73L513.47-86.73Q519.46-82.46 522.69-75.91L522.69-75.91L522.69-75.91Q525.92-69.35 525.92-60.42L525.92-60.42L525.92-17.86L525.92-17.86Q525.92-12.92 523.16-9.79L523.16-9.79L523.16-9.79Q520.41-6.65 516.61-4.37L516.61-4.37L516.61-4.37Q504.26 3.04 481.84 3.04L481.84 3.04L481.84 3.04Q471.77 3.04 463.69 1.14L463.69 1.14L463.69 1.14Q455.62-0.76 449.82-4.56L449.82-4.56L449.82-4.56Q444.03-8.36 440.89-14.25L440.89-14.25L440.89-14.25Q437.76-20.14 437.76-27.93L437.76-27.93L437.76-27.93Q437.76-41.04 445.55-48.07L445.55-48.07L445.55-48.07Q453.34-55.10 469.68-56.81L469.68-56.81L494.57-59.47L494.57-60.80L494.57-60.80Q494.57-66.31 489.72-68.69L489.72-68.69L489.72-68.69Q484.88-71.06 475.76-71.06L475.76-71.06L475.76-71.06Q468.54-71.06 461.70-69.54L461.70-69.54L461.70-69.54Q454.86-68.02 449.35-65.74L449.35-65.74L449.35-65.74Q446.88-67.45 445.17-70.97L445.17-70.97L445.17-70.97Q443.46-74.48 443.46-78.28L443.46-78.28L443.46-78.28Q443.46-83.22 445.83-86.17L445.83-86.17L445.83-86.17Q448.21-89.11 453.15-91.20L453.15-91.20L453.15-91.20Q458.66-93.29 466.16-94.24L466.16-94.24L466.16-94.24Q473.67-95.19 480.32-95.19ZM604.20-13.68L604.20-58.52L604.20-58.52Q604.20-64.41 600.88-67.17L600.88-67.17L600.88-67.17Q597.55-69.92 591.85-69.92L591.85-69.92L591.85-69.92Q588.05-69.92 584.34-68.97L584.34-68.97L584.34-68.97Q580.64-68.02 577.98-66.12L577.98-66.12L577.98-0.19L577.98-0.19Q576.08 0.38 572.00 0.95L572.00 0.95L572.00 0.95Q567.91 1.52 563.54 1.52L563.54 1.52L563.54 1.52Q559.36 1.52 556.03 0.95L556.03 0.95L556.03 0.95Q552.71 0.38 550.43-1.33L550.43-1.33L550.43-1.33Q548.15-3.04 546.91-5.99L546.91-5.99L546.91-5.99Q545.68-8.93 545.68-13.68L545.68-13.68L545.68-70.68L545.68-70.68Q545.68-75.81 547.87-79.04L547.87-79.04L547.87-79.04Q550.05-82.27 553.85-84.93L553.85-84.93L553.85-84.93Q560.31-89.49 570.09-92.34L570.09-92.34L570.09-92.34Q579.88-95.19 591.85-95.19L591.85-95.19L591.85-95.19Q613.32-95.19 624.91-85.78L624.91-85.78L624.91-85.78Q636.50-76.38 636.50-59.66L636.50-59.66L636.50-0.19L636.50-0.19Q634.60 0.38 630.51 0.95L630.51 0.95L630.51 0.95Q626.43 1.52 622.06 1.52L622.06 1.52L622.06 1.52Q617.88 1.52 614.55 0.95L614.55 0.95L614.55 0.95Q611.23 0.38 608.95-1.33L608.95-1.33L608.95-1.33Q606.67-3.04 605.43-5.99L605.43-5.99L605.43-5.99Q604.20-8.93 604.20-13.68L604.20-13.68Z" fill="url(#editing-sticker-gradient)" stroke="#c449d3" stroke-width="0"></path></g></g><style>text {
  font-size: 64px;
  font-family: Arial Black;
  dominant-baseline: central;
  text-anchor: middle;
}</style></svg>